name C:\Users\u0101727\Documents\MyRepositories\upper-imu-dc\Results\main_tracking\Case_51\kinematics_filtered.mot
datacolumns 10
datarows 18
range 1.37000000 1.54000000
endheader 
time	clav_prot	clav_elev	scapula_abduction	scapula_elevation	scapula_upward_rot	scapula_winging	plane_elv	shoulder_elv	axial_rot	
          1.37000000	        -20.28198177	         14.14367593	         -4.93768520	          6.04675170	         28.83704277	         -0.81656758	          7.13690398	          5.23583459	         26.77380553	
          1.38000000	        -20.32956606	         14.40077793	         -4.92024210	          6.16475025	         29.14939128	         -0.87763424	          8.28142049	          4.99451887	         26.01463764	
          1.39000000	        -20.37153186	         14.63855044	         -4.89974920	          6.27413087	         29.43885540	         -0.93328032	          9.42973665	          4.76973436	         25.23675988	
          1.40000000	        -20.40894705	         14.85664287	         -4.87794215	          6.37449699	         29.70553378	         -0.98380076	         10.57328490	          4.56183059	         24.44769941	
          1.41000000	        -20.44325305	         15.05491085	         -4.85720725	          6.46553748	         29.94974371	         -1.02952980	         11.70342637	          4.37099722	         23.65515391	
          1.42000000	        -20.47630959	         15.23345112	         -4.84069325	          6.54705128	         30.17201556	         -1.07083336	         12.81165403	          4.19727101	         22.86675178	
          1.43000000	        -20.51045210	         15.39263393	         -4.83244652	          6.61896981	         30.37308550	         -1.10810138	         13.88979721	          4.04054430	         22.08980893	
          1.44000000	        -20.54854517	         15.53312719	         -4.83753763	          6.68137418	         30.55388327	         -1.14173998	         14.93021926	          3.90057390	         21.33109877	
          1.45000000	        -20.59400176	         15.65590435	         -4.86212012	          6.73450437	         30.71551095	         -1.17216335	         15.92599889	          3.77699008	         20.59665212	
          1.46000000	        -20.65072172	         15.76222722	         -4.91333032	          6.77875715	         30.85920929	         -1.19978497	         16.87108651	          3.66930568	         19.89160028	
          1.47000000	        -20.72288529	         15.85359478	         -4.99890249	          6.81467063	         30.98630945	         -1.22500794	         17.76042833	          3.57692656	         19.22006969	
          1.48000000	        -20.81452087	         15.93165042	         -5.12633987	          6.84289451	         31.09817113	         -1.24821374	         18.59005412	          3.49916487	         18.58513059	
          1.49000000	        -20.92875323	         15.99804329	         -5.30145656	          6.86414758	         31.19611171	         -1.26974938	         19.35712713	          3.43525688	         17.98879658	
          1.50000000	        -21.06663556	         16.05424456	         -5.52609901	          6.87916706	         31.28133584	         -1.28991217	         20.05995761	          3.38438611	         17.43206808	
          1.51000000	        -21.22636911	         16.10139635	         -5.79661792	          6.88865717	         31.35487746	         -1.30893242	         20.69798391	          3.34571040	         16.91501021	
          1.52000000	        -21.40371739	         16.14027261	         -6.10466878	          6.89324562	         31.41756611	         -1.32695371	         21.27172794	          3.31838889	         16.43685308	
          1.53000000	        -21.59206917	         16.17124110	         -6.43731641	          6.89345502	         31.47002695	         -1.34401407	         21.78273041	          3.30160046	         15.99610488	
          1.54000000	        -21.78220647	         16.19424359	         -6.77655491	          6.88969570	         31.51271816	         -1.36004339	         22.23346537	          3.29454332	         15.59067416	
